<svg width="441" height="356" viewBox="0 0 441 356" fill="none" xmlns="http://www.w3.org/2000/svg">
<path d="M80.4009 42.4549C80.4746 41.8616 80.6021 41.2804 80.7829 40.7132L80.4009 42.4549C78.2496 59.777 122.005 87.5348 228.229 84.2664C347.155 80.6072 380.634 60.685 379.596 40L437.598 304.631C442.158 321.206 375.765 351.849 235.319 353C96.3727 354.139 22.8192 325.301 22.8192 304.988L80.4009 42.4549Z" fill="#F6E3B4"/>
<path d="M80.7829 40.7132C75.3253 57.8389 118.367 87.6467 228.229 84.2664C347.155 80.6072 380.634 60.685 379.596 40L437.598 304.631C442.158 321.206 375.765 351.849 235.319 353C96.3727 354.139 22.8192 325.301 22.8192 304.988L80.7829 40.7132Z" stroke="black" stroke-width="5"/>
<path d="M437.153 308.643C437.061 308.979 436.95 309.318 436.82 309.659C436.908 309.327 436.982 308.989 437.043 308.643H437.153ZM422.855 322.634C424.676 321.605 426.325 320.638 427.799 319.699C426.282 320.768 424.571 321.846 422.655 322.929C412.313 328.77 396.984 334.159 377.442 338.723C367.617 341.017 356.858 343.072 345.335 344.861C357.341 342.932 368.675 340.763 377.571 338.685C395.385 334.526 412.989 328.207 422.855 322.634ZM23.2154 309.739C22.9856 309.152 22.8131 308.572 22.6952 308H22.8629C22.9406 308.592 23.058 309.171 23.2154 309.739Z" fill="black" stroke="black" stroke-width="5"/>
<path d="M380.819 43.5252C380.819 65.9066 313.662 84.0503 230.819 84.0503C147.977 84.0503 80.8192 65.9066 80.8192 43.5252C80.8192 21.1437 147.977 3 230.819 3C313.662 3 380.819 21.1437 380.819 43.5252Z" fill="url(#paint0_radial_216_84)"/>
<path d="M136.819 107.96C136.153 104.043 133.319 95.8026 130.819 93.3711C129.28 91.8745 126.319 89.967 120.319 89.3186C114.319 88.6702 112.281 91.3449 111.319 93.3711C109.653 96.8833 110.319 104.07 114.319 109.581C118.319 115.093 112.486 118.902 110.819 120.118C109.319 121.198 105.219 122.711 100.819 120.118C96.4193 117.524 97.3193 112.013 98.3193 109.581C100.653 101.881 97.6663 84.0838 93.8192 74.7295C90.081 65.6401 86.1973 56.3148 84.2085 52.3765C84.0607 52.125 83.9309 51.8762 83.8192 51.6302C83.9392 51.8513 84.0692 52.1007 84.2085 52.3765C90.151 62.4838 125.276 76.8837 183.819 82.0241C179.986 83.1047 167.519 87.1302 162.319 91.3449C157.119 95.5595 154.486 104.178 153.819 107.96C152.653 114.714 155.019 131.87 157.819 144.838C160.619 157.806 147.692 160.8 142.319 159.832C137.819 159.022 129.919 156.185 134.319 143.217C138.719 130.249 137.819 114.309 136.819 107.96Z" fill="#9C3104"/>
<path d="M84.2085 52.3765C86.1973 56.3148 90.081 65.6401 93.8192 74.7295C97.6663 84.0838 100.653 101.881 98.3193 109.581C97.3193 112.013 96.4193 117.524 100.819 120.118C105.219 122.711 109.319 121.198 110.819 120.118C112.486 118.902 118.319 115.093 114.319 109.581C110.319 104.07 109.653 96.8833 111.319 93.3711C112.281 91.3449 114.319 88.6702 120.319 89.3186C126.319 89.967 129.28 91.8745 130.819 93.3711C133.319 95.8026 136.153 104.043 136.819 107.96C137.819 114.309 138.719 130.249 134.319 143.217C129.919 156.185 137.819 159.022 142.319 159.832C147.692 160.8 160.619 157.806 157.819 144.838C155.019 131.87 152.653 114.714 153.819 107.96C154.486 104.178 157.119 95.5595 162.319 91.3449C167.519 87.1302 179.986 83.1047 183.819 82.0241C125.276 76.8837 90.151 62.4838 84.2085 52.3765ZM84.2085 52.3765C84.0692 52.1007 83.9392 51.8513 83.8192 51.6302C83.9309 51.8762 84.0607 52.125 84.2085 52.3765ZM380.819 43.5252C380.819 65.9066 313.662 84.0503 230.819 84.0503C147.977 84.0503 80.8192 65.9066 80.8192 43.5252C80.8192 21.1437 147.977 3 230.819 3C313.662 3 380.819 21.1437 380.819 43.5252Z" stroke="black" stroke-width="5"/>
<path d="M357.74 215.156C354.205 223.398 350.139 231.885 344.82 238.394C339.325 245.119 332.692 249.5 324.086 249.5C315.445 249.5 307.053 244.537 299.762 237.125C292.824 230.071 287.167 221.075 283.594 213.023C289.407 202.24 295.081 194.246 301.412 188.907C307.863 183.466 315.076 180.711 324.086 180.711C332.771 180.711 338.885 184.513 344.064 190.832C349.18 197.073 353.238 205.59 357.74 215.156Z" fill="#F6E3B4" stroke="url(#paint1_linear_216_84)" stroke-width="5"/>
<path d="M348.157 215.106C348.157 225.113 345.31 234.131 340.759 240.62C336.205 247.112 330.009 251 323.278 251C316.546 251 310.351 247.112 305.797 240.62C301.245 234.131 298.398 225.113 298.398 215.106C298.398 205.098 301.245 196.081 305.797 189.592C310.351 183.1 316.546 179.211 323.278 179.211C330.009 179.211 336.205 183.1 340.759 189.592C345.31 196.081 348.157 205.098 348.157 215.106Z" fill="url(#paint2_linear_216_84)" stroke="black" stroke-width="2"/>
<ellipse cx="323.278" cy="216.862" rx="12.9397" ry="20.204" fill="black"/>
<ellipse cx="6.99402" cy="4.31013" rx="6.99402" ry="4.31013" transform="matrix(0.85174 -0.523964 0.462342 0.886702 308.72 200.474)" fill="white"/>
<ellipse cx="3.99834" cy="2.46739" rx="3.99834" ry="2.46739" transform="matrix(0.815239 0.579124 -0.515825 0.856694 329.867 196.658)" fill="white"/>
<path d="M353.855 184.759C352.169 190.357 344.487 189.171 341.673 187.812C341.673 187.812 347.036 197.732 345.342 194.288C343.647 190.845 353.282 190.358 353.855 184.759Z" fill="black" stroke="black"/>
<path d="M328.519 172.001C328.642 177.89 321.034 179.547 317.964 179.282C317.964 179.282 326.059 186.699 323.407 184.064C320.755 181.428 329.692 177.488 328.519 172.001Z" fill="black" stroke="black"/>
<path d="M343.884 175.419C342.803 181.191 335.046 180.975 332.107 179.977C332.107 179.977 338.487 189.159 336.438 185.951C334.39 182.742 343.909 181.052 343.884 175.419Z" fill="black" stroke="black"/>
<path d="M360.811 195.666C358.249 200.857 350.877 198.23 348.325 196.357C348.325 196.357 352.008 207.143 350.894 203.43C349.78 199.718 359.345 201.069 360.811 195.666Z" fill="black" stroke="black"/>
<path d="M183.092 215.126C179.644 223.383 175.677 231.889 170.488 238.41C165.129 245.145 158.685 249.5 150.351 249.5C141.98 249.5 133.822 244.56 126.714 237.139C119.947 230.074 114.429 221.059 110.945 212.99C116.616 202.185 122.149 194.179 128.319 188.835C134.596 183.397 141.604 180.654 150.351 180.654C158.765 180.654 164.703 184.432 169.752 190.757C174.742 197.009 178.7 205.543 183.092 215.126Z" fill="white" stroke="url(#paint3_linear_216_84)" stroke-width="5"/>
<path d="M183.092 215.126C179.644 223.383 175.677 231.889 170.488 238.41C165.129 245.145 158.685 249.5 150.351 249.5C141.98 249.5 133.822 244.56 126.714 237.139C119.947 230.074 114.429 221.059 110.945 212.99C116.616 202.185 122.149 194.179 128.319 188.835C134.596 183.397 141.604 180.654 150.351 180.654C158.765 180.654 164.703 184.432 169.752 190.757C174.742 197.009 178.7 205.543 183.092 215.126Z" fill="#F6E3B4" stroke="url(#paint4_linear_216_84)" stroke-width="5"/>
<path d="M173.785 215.077C173.785 225.098 171.008 234.126 166.572 240.621C162.132 247.121 156.101 251 149.563 251C143.025 251 136.994 247.121 132.554 240.621C128.118 234.126 125.341 225.098 125.341 215.077C125.341 205.056 128.118 196.027 132.554 189.532C136.994 183.032 143.025 179.154 149.563 179.154C156.101 179.154 162.132 183.032 166.572 189.532C171.008 196.027 173.785 205.056 173.785 215.077Z" fill="url(#paint5_linear_216_84)" stroke="black" stroke-width="2"/>
<ellipse cx="149.563" cy="216.835" rx="12.6108" ry="20.2198" fill="black"/>
<ellipse cx="6.86704" cy="4.28961" rx="6.86704" ry="4.28961" transform="matrix(0.84544 -0.53407 0.452746 0.89164 135.376 200.434)" fill="white"/>
<ellipse cx="3.93215" cy="2.45228" rx="3.93215" ry="2.45228" transform="matrix(0.807891 0.589331 -0.505811 0.862644 155.985 196.615)" fill="white"/>
<path d="M116.073 183.828C117.717 189.431 125.203 188.244 127.946 186.884C127.946 186.884 122.719 196.811 124.37 193.365C126.022 189.919 116.632 189.431 116.073 183.828Z" fill="black" stroke="black"/>
<path d="M143.018 172.001C142.898 177.894 150.312 179.552 153.303 179.287C153.303 179.287 145.414 186.71 147.999 184.073C150.584 181.436 141.874 177.492 143.018 172.001Z" fill="black" stroke="black"/>
<path d="M127.896 176.239C128.95 182.015 136.509 181.798 139.374 180.8C139.374 180.8 133.156 189.989 135.152 186.778C137.149 183.567 127.873 181.876 127.896 176.239Z" fill="black" stroke="black"/>
<path d="M105.827 197.381C108.324 202.576 115.508 199.946 117.995 198.072C117.995 198.072 114.406 208.866 115.491 205.151C116.576 201.436 107.255 202.788 105.827 197.381Z" fill="black" stroke="black"/>
<path d="M265.63 273.607C265.671 275.76 264.842 278.984 263.076 282.767C261.339 286.491 258.798 290.535 255.677 294.274C249.347 301.858 241.078 307.683 232.745 307.843C224.559 308 217.133 302.3 211.539 294.63C208.784 290.853 206.58 286.733 205.059 282.924C203.522 279.076 202.748 275.711 202.704 273.423C202.623 269.175 205.315 264.764 210.698 261.238C216.044 257.737 223.749 255.346 232.771 255.172C241.73 255 250.062 257.401 256.112 261.059C262.274 264.783 265.551 269.449 265.63 273.607Z" fill="#953939" stroke="black" stroke-width="5"/>
<path d="M217.284 259.793C242.672 253.191 257.872 271.01 261.185 283.058C258.286 288.043 255.387 293.444 247.932 299.676C233.47 311.764 222.254 304.245 218.112 299.676C205.687 286.797 194.919 265.609 217.284 259.793Z" fill="#F7BFBF"/>
<defs>
<radialGradient id="paint0_radial_216_84" cx="0" cy="0" r="1" gradientUnits="userSpaceOnUse" gradientTransform="translate(235.819 88.565) rotate(-32.2769) scale(257.251 1006.31)">
<stop stop-color="#AC4D17"/>
<stop offset="0.445" stop-color="#9C3104"/>
<stop offset="0.995" stop-color="#74321B"/>
</radialGradient>
<linearGradient id="paint1_linear_216_84" x1="323.278" y1="178.211" x2="323.755" y2="252" gradientUnits="userSpaceOnUse">
<stop offset="0.475"/>
<stop offset="0.4751" stop-opacity="0"/>
</linearGradient>
<linearGradient id="paint2_linear_216_84" x1="267.868" y1="172.998" x2="301.325" y2="283.24" gradientUnits="userSpaceOnUse">
<stop offset="0.381264"/>
<stop offset="0.544839" stop-color="#542A0E"/>
</linearGradient>
<linearGradient id="paint3_linear_216_84" x1="147.199" y1="178.154" x2="146.953" y2="252" gradientUnits="userSpaceOnUse">
<stop offset="0.475"/>
<stop offset="0.4751" stop-opacity="0"/>
</linearGradient>
<linearGradient id="paint4_linear_216_84" x1="147.199" y1="178.154" x2="146.953" y2="252" gradientUnits="userSpaceOnUse">
<stop offset="0.475"/>
<stop offset="0.4751" stop-opacity="0"/>
</linearGradient>
<linearGradient id="paint5_linear_216_84" x1="95.5615" y1="172.936" x2="129.787" y2="282.76" gradientUnits="userSpaceOnUse">
<stop offset="0.381264"/>
<stop offset="0.544839" stop-color="#542A0E"/>
</linearGradient>
</defs>
</svg>
