<svg width="226" height="158" viewBox="0 0 226 158" fill="none" xmlns="http://www.w3.org/2000/svg">
<path d="M179.033 20.97C237.49 53.7723 228.084 98.9656 192.136 127.878C179.033 137.964 162.57 143.007 149.804 147.041C87.9581 166.331 88.3186 134.18 96.2921 115.987C38.0185 124.328 41.1688 91.6507 53.3734 71.487L42.9683 73.4152C24.8264 76.441 0.635988 63.3296 5.67646 42.1495C10.7169 20.9695 49.3495 16.9356 82.2754 9.87572C126.623 0.366919 150.812 5.13446 179.033 20.97Z" fill="#fffee6"/>
<path d="M192.136 127.878L195.186 131.84L195.228 131.807L195.269 131.774L192.136 127.878ZM179.033 20.97L176.586 25.3305L176.586 25.3305L179.033 20.97ZM82.2754 9.87572L81.2272 4.98684L81.2272 4.98684L82.2754 9.87572ZM5.67646 42.1495L0.812301 40.992L5.67646 42.1495ZM42.9683 73.4152L43.7909 78.3471L43.8352 78.3397L43.8794 78.3315L42.9683 73.4152ZM98.3052 68.2459C101.02 67.7428 102.814 65.1338 102.31 62.4186C101.807 59.7034 99.1984 57.9102 96.4832 58.4133L98.3052 68.2459ZM117.552 111.741L118.754 116.594L118.789 116.586L118.825 116.576L117.552 111.741ZM137.975 111.533C140.645 110.83 142.24 108.095 141.536 105.425C140.833 102.755 138.098 101.16 135.428 101.863L137.975 111.533ZM149.804 147.041L151.292 151.814L151.301 151.811L151.31 151.809L149.804 147.041ZM195.269 131.774C213.933 116.763 226.499 96.8974 225.985 75.7612C225.465 54.3637 211.616 33.5198 181.48 16.6096L176.586 25.3305C204.908 41.2225 215.584 59.3764 215.988 76.0042C216.398 92.8933 206.286 110.08 189.002 123.982L195.269 131.774ZM181.48 16.6096C166.996 8.48224 153.28 3.0501 137.352 0.961188C121.476 -1.12081 103.733 0.161242 81.2272 4.98684L83.3237 14.7646C105.165 10.0814 121.69 8.99282 136.051 10.8763C150.36 12.7528 162.849 17.6223 176.586 25.3305L181.48 16.6096ZM81.2272 4.98684C65.2038 8.42253 46.713 11.318 32.0163 15.9487C24.5931 18.2876 17.6937 21.1896 12.2317 25.098C6.70612 29.0518 2.42681 34.2078 0.812301 40.992L10.5406 43.3071C11.4463 39.5013 13.8863 36.2104 18.0509 33.2304C22.2791 30.2049 28.0407 27.686 35.0215 25.4864C49.1327 21.0402 66.4211 18.3888 83.3237 14.7646L81.2272 4.98684ZM0.812301 40.992C-2.28453 54.0049 3.79 64.4807 12.7027 70.9138C21.4411 77.221 33.368 80.0854 43.7909 78.3471L42.1458 68.4833C34.4267 69.7707 25.1875 67.5923 18.5553 62.8053C12.0974 58.1441 8.59698 51.4743 10.5406 43.3071L0.812301 40.992ZM43.8794 78.3315L54.2844 76.4033L52.4623 66.5707L42.0573 68.4989L43.8794 78.3315ZM54.2844 76.4033L98.3052 68.2459L96.4832 58.4133L52.4623 66.5707L54.2844 76.4033ZM49.8351 67.7067C49.5855 68.0991 49.339 68.4963 49.0959 68.898L57.6509 74.0761C57.8557 73.7376 58.0633 73.4031 58.2733 73.0729L49.8351 67.7067ZM49.0959 68.898C45.8089 74.3286 43.0604 80.7074 41.8246 87.1822C40.5928 93.6356 40.7972 100.581 43.9588 106.717C50.5394 119.487 67.5681 125.149 97.0006 120.936L95.5836 111.037C66.7425 115.166 56.2096 108.66 52.8481 102.136C51.0386 98.6244 50.6768 94.1412 51.6472 89.0571C52.6135 83.9946 54.8356 78.7272 57.6509 74.0761L49.0959 68.898ZM97.0006 120.936C103.53 120.002 110.76 118.574 118.754 116.594L116.349 106.888C108.627 108.8 101.73 110.158 95.5836 111.037L97.0006 120.936ZM118.825 116.576L137.975 111.533L135.428 101.863L116.278 106.906L118.825 116.576ZM91.8159 113.746C91.7812 113.824 91.7468 113.902 91.7127 113.98L100.872 117.994C100.899 117.93 100.927 117.867 100.955 117.805L91.8159 113.746ZM91.7126 113.98C89.5323 118.955 87.8122 125.001 87.5956 131.048C87.3792 137.092 88.6636 143.585 93.039 148.788C97.4712 154.059 104.413 157.223 113.888 157.873C123.286 158.518 135.524 156.732 151.292 151.814L148.315 142.268C133.16 146.995 122.252 148.424 114.572 147.897C106.969 147.375 102.904 144.982 100.692 142.352C98.4239 139.654 97.4282 135.904 97.5892 131.406C97.7502 126.911 99.0652 122.116 100.872 117.994L91.7126 113.98ZM151.31 151.809C163.902 147.83 181.259 142.56 195.186 131.84L189.086 123.916C176.807 133.367 161.239 138.184 148.297 142.273L151.31 151.809Z" fill="black"/>
</svg>
