<svg width="122" height="88" viewBox="0 0 122 88" fill="none" xmlns="http://www.w3.org/2000/svg">
<g filter="url(#filter0_d_222_168)">
<path d="M94.1813 10.5679C123.41 26.969 118.707 49.5657 100.733 64.0218C94.1816 69.0647 85.95 71.5862 79.5667 73.6034C48.6439 83.2481 48.8242 67.173 52.811 58.0763C23.6741 62.247 25.2493 45.9082 31.3516 35.8264L26.1491 36.7905C17.0781 38.3034 4.98291 31.7477 7.50315 21.1577C10.0234 10.5676 29.3397 8.55069 45.8026 5.02075C67.9762 0.266345 80.0709 2.65011 94.1813 10.5679Z" fill="#fffee6"/>
<path d="M100.733 64.0218L102.258 66.0029L102.279 65.9866L102.3 65.9699L100.733 64.0218ZM94.1813 10.5679L92.9579 12.7481L92.9579 12.7481L94.1813 10.5679ZM45.8026 5.02075L45.2785 2.57631L45.2785 2.57631L45.8026 5.02075ZM7.50315 21.1577L5.07107 20.5789L7.50315 21.1577ZM26.1491 36.7905L26.5604 39.2564L26.5825 39.2527L26.6046 39.2486L26.1491 36.7905ZM53.8175 34.2058C55.1751 33.9543 56.0717 32.6498 55.8202 31.2922C55.5686 29.9346 54.2641 29.038 52.9065 29.2895L53.8175 34.2058ZM63.4407 55.9534L64.0418 58.3801L64.0596 58.3757L64.0773 58.371L63.4407 55.9534ZM73.6522 55.8496C74.9874 55.498 75.7848 54.1306 75.4332 52.7954C75.0816 51.4602 73.7141 50.6628 72.3789 51.0144L73.6522 55.8496ZM79.5667 73.6034L80.3111 75.99L80.32 75.9872L79.5667 73.6034ZM102.3 65.9699C111.632 58.4645 117.914 48.5316 117.657 37.9635C117.397 27.2648 110.473 16.8428 95.4047 8.38769L92.9579 12.7481C107.119 20.6942 112.457 29.7711 112.659 38.085C112.864 46.5295 107.808 55.123 99.166 62.0737L102.3 65.9699ZM95.4047 8.38769C88.1627 4.32401 81.3047 1.60794 73.3407 0.56348C65.4031 -0.477521 56.5313 0.163507 45.2785 2.57631L46.3268 7.46519C57.2475 5.12359 65.5099 4.5793 72.6906 5.52103C79.8449 6.4593 86.0894 8.89401 92.9579 12.7481L95.4047 8.38769ZM45.2785 2.57631C37.2668 4.29415 28.0214 5.74188 20.6731 8.05723C16.9615 9.22669 13.5118 10.6777 10.7808 12.6319C8.01798 14.6088 5.87832 17.1868 5.07107 20.5789L9.93522 21.7364C10.3881 19.8335 11.6081 18.1881 13.6904 16.6981C15.8045 15.1854 18.6853 13.9259 22.1757 12.8261C29.2313 10.603 37.8755 9.27729 46.3268 7.46519L45.2785 2.57631ZM5.07107 20.5789C3.52265 27.0853 6.55992 32.3233 11.0163 35.5398C15.3854 38.6934 21.3489 40.1256 26.5604 39.2564L25.7378 34.3245C21.8782 34.9682 17.2586 33.8791 13.9426 31.4855C10.7136 29.1549 8.9634 25.82 9.93522 21.7364L5.07107 20.5789ZM26.6046 39.2486L31.8071 38.2846L30.8961 33.3683L25.6936 34.3323L26.6046 39.2486ZM31.8071 38.2846L53.8175 34.2058L52.9065 29.2895L30.8961 33.3683L31.8071 38.2846ZM29.5825 33.9362C29.4577 34.1324 29.3344 34.331 29.2129 34.5319L33.4903 37.1209C33.5928 36.9517 33.6966 36.7844 33.8016 36.6193L29.5825 33.9362ZM29.2129 34.5319C27.5693 37.2472 26.1951 40.4366 25.5772 43.674C24.9613 46.9007 25.0635 50.3734 26.6443 53.4412C29.9346 59.8266 38.449 62.6576 53.1652 60.5511L52.4567 55.6016C38.0362 57.6657 32.7697 54.4127 31.0889 51.1509C30.1842 49.3951 30.0033 47.1535 30.4885 44.6114C30.9717 42.0802 32.0827 39.4465 33.4903 37.1209L29.2129 34.5319ZM53.1652 60.5511C56.4297 60.0838 60.0449 59.3701 64.0418 58.3801L62.8396 53.5268C58.9786 54.4831 55.5298 55.1617 52.4567 55.6016L53.1652 60.5511ZM64.0773 58.371L73.6522 55.8496L72.3789 51.0144L62.8041 53.5358L64.0773 58.371ZM50.5729 56.9557C50.5555 56.9948 50.5383 57.0338 50.5213 57.0728L55.1007 59.0799C55.1146 59.0481 55.1285 59.0166 55.1424 58.9854L50.5729 56.9557ZM50.5212 57.0728C49.4311 59.5603 48.571 62.5832 48.4627 65.6069C48.3545 68.629 48.9967 71.8755 51.1844 74.4769C53.4005 77.1122 56.8716 78.6945 61.6088 79.0195C66.3078 79.3419 72.4271 78.449 80.3111 75.99L78.8223 71.2168C71.2449 73.5802 65.7908 74.2947 61.951 74.0312C58.1496 73.7705 56.117 72.5738 55.0111 71.2589C53.8769 69.9101 53.379 68.0349 53.4595 65.7859C53.54 63.5385 54.1975 61.1408 55.1007 59.0798L50.5212 57.0728ZM80.32 75.9872C86.6157 73.9977 95.2945 71.3629 102.258 66.0029L99.2079 62.0408C93.0686 66.7665 85.2843 69.1747 78.8134 71.2196L80.32 75.9872Z" fill="black"/>
</g>
<defs>
<filter id="filter0_d_222_168" x="0.662231" y="0.0828857" width="121.003" height="86.9999" filterUnits="userSpaceOnUse" color-interpolation-filters="sRGB">
<feFlood flood-opacity="0" result="BackgroundImageFix"/>
<feColorMatrix in="SourceAlpha" type="matrix" values="0 0 0 0 0 0 0 0 0 0 0 0 0 0 0 0 0 0 127 0" result="hardAlpha"/>
<feOffset dy="4"/>
<feGaussianBlur stdDeviation="2"/>
<feComposite in2="hardAlpha" operator="out"/>
<feColorMatrix type="matrix" values="0 0 0 0 0 0 0 0 0 0 0 0 0 0 0 0 0 0 0.25 0"/>
<feBlend mode="normal" in2="BackgroundImageFix" result="effect1_dropShadow_222_168"/>
<feBlend mode="normal" in="SourceGraphic" in2="effect1_dropShadow_222_168" result="shape"/>
</filter>
</defs>
</svg>
