<svg width="122" height="88" viewBox="0 0 122 88" fill="none" xmlns="http://www.w3.org/2000/svg">
<g filter="url(#filter0_d_222_166)">
<path d="M27.9836 11.0366C-1.24515 27.5436 3.45806 50.2861 21.4321 64.8356C27.9408 69.7794 35.8172 72.1015 42.1591 74.079C72.6482 83.4626 72.7029 68.0126 68.8305 59.0611C99.5346 63.7629 97.3348 46.8747 90.7806 36.4521L96.0158 37.4284C105.087 38.9511 117.182 32.3531 114.662 21.6947C112.142 11.0363 92.8252 9.00634 76.3623 5.4536C54.1887 0.668503 42.0941 3.06766 27.9836 11.0366Z" fill="#fffee6"/>
<path d="M21.4321 64.8356L19.8591 66.7788L19.8892 66.8031L19.9199 66.8264L21.4321 64.8356ZM27.9836 11.0366L29.213 13.2134L29.213 13.2134L27.9836 11.0366ZM76.3623 5.4536L76.8897 3.00986L76.8897 3.00986L76.3623 5.4536ZM114.662 21.6947L112.229 22.27L114.662 21.6947ZM96.0158 37.4284L95.5575 39.8861L95.5797 39.8902L95.602 39.894L96.0158 37.4284ZM90.7806 36.4521L91.239 33.9944L91.239 33.9944L90.7806 36.4521ZM69.2613 29.8955C67.904 29.6423 66.5984 30.5374 66.3453 31.8947C66.0921 33.252 66.9872 34.5576 68.3445 34.8107L69.2613 29.8955ZM58.1992 56.8741L57.5559 59.29L57.5738 59.2947L57.5918 59.2992L58.1992 56.8741ZM49.0265 51.8442C47.6923 51.4889 46.3227 52.2825 45.9674 53.6167C45.6121 54.9509 46.4056 56.3205 47.7398 56.6758L49.0265 51.8442ZM42.1591 74.079L41.4149 76.4657L41.4237 76.4684L42.1591 74.079ZM23.005 62.8924C14.3642 55.8979 9.3005 47.2436 9.50608 38.7305C9.70851 30.3475 15.0558 21.2087 29.213 13.2134L26.7542 8.85973C11.6826 17.3715 4.76718 27.8575 4.50753 38.6098C4.25102 49.2321 10.526 59.2238 19.8591 66.7788L23.005 62.8924ZM29.213 13.2134C36.0813 9.33452 42.3245 6.88485 49.4764 5.94084C56.6547 4.99335 64.9151 5.54082 75.8349 7.89735L76.8897 3.00986C65.6359 0.581281 56.7622 -0.0642107 48.8221 0.983831C40.8557 2.03535 33.9964 4.76972 26.7542 8.85973L29.213 13.2134ZM75.8349 7.89735C84.2874 9.72141 92.93 11.0553 99.9848 13.2926C103.474 14.3992 106.355 15.6664 108.468 17.1888C110.55 18.6878 111.774 20.3463 112.229 22.27L117.095 21.1194C116.289 17.7139 114.154 15.1218 111.39 13.1314C108.659 11.1645 105.209 9.70375 101.496 8.52647C94.1472 6.19594 84.9001 4.73853 76.8897 3.00986L75.8349 7.89735ZM112.229 22.27C113.205 26.3973 111.444 29.762 108.216 32.1068C104.9 34.5155 100.284 35.61 96.4297 34.9629L95.602 39.894C100.818 40.7696 106.785 39.3263 111.155 36.1521C115.612 32.914 118.639 27.6505 117.095 21.1194L112.229 22.27ZM96.4742 34.9708L91.239 33.9944L90.3223 38.9097L95.5575 39.8861L96.4742 34.9708ZM91.239 33.9944L69.2613 29.8955L68.3445 34.8107L90.3223 38.9097L91.239 33.9944ZM88.6643 37.7829C90.1875 40.2052 91.4184 42.9464 91.991 45.575C92.5672 48.2199 92.4331 50.5268 91.5414 52.3101C90.6902 54.0125 88.9552 55.6246 85.4822 56.5645C81.9411 57.5228 76.7083 57.7383 69.209 56.5899L68.4521 61.5323C76.3049 62.7348 82.3111 62.6025 86.7883 61.3909C91.3334 60.1609 94.3959 57.7811 96.0135 54.5463C97.5905 51.3925 97.5966 47.8169 96.8764 44.5108C96.1527 41.1885 94.6508 37.9102 92.897 35.1212L88.6643 37.7829ZM69.209 56.5899C66.1173 56.1165 62.6612 55.4146 58.8067 54.4491L57.5918 59.2992C61.5731 60.2965 65.1834 61.0318 68.4521 61.5323L69.209 56.5899ZM58.8426 54.4583L49.0265 51.8442L47.7398 56.6758L57.5559 59.29L58.8426 54.4583ZM66.415 59.7795C66.4558 59.87 66.4961 59.9615 66.5361 60.0538L71.125 58.0685C71.0754 57.9539 71.0252 57.8401 70.9745 57.7273L66.415 59.7795ZM66.536 60.0537C67.4116 62.0777 68.0318 64.4025 68.0851 66.5652C68.1382 68.7239 67.6292 70.5109 66.501 71.7971C65.3923 73.0609 63.3576 74.2148 59.5752 74.455C55.7613 74.6972 50.3653 73.9889 42.8945 71.6896L41.4237 76.4684C49.1974 78.8609 55.2417 79.7402 59.8921 79.4449C64.5739 79.1476 68.0276 77.639 70.2598 75.0943C72.4723 72.572 73.1565 69.4046 73.0836 66.4421C73.0107 63.4835 72.1857 60.5203 71.125 58.0685L66.536 60.0537ZM42.9033 71.6924C36.4653 69.6849 29.0397 67.4746 22.9442 62.8448L19.9199 66.8264C26.842 72.0841 35.1691 74.5182 41.4149 76.4657L42.9033 71.6924Z" fill="black"/>
</g>
<defs>
<filter id="filter0_d_222_166" x="0.5" y="0.5" width="121.003" height="86.9999" filterUnits="userSpaceOnUse" color-interpolation-filters="sRGB">
<feFlood flood-opacity="0" result="BackgroundImageFix"/>
<feColorMatrix in="SourceAlpha" type="matrix" values="0 0 0 0 0 0 0 0 0 0 0 0 0 0 0 0 0 0 127 0" result="hardAlpha"/>
<feOffset dy="4"/>
<feGaussianBlur stdDeviation="2"/>
<feComposite in2="hardAlpha" operator="out"/>
<feColorMatrix type="matrix" values="0 0 0 0 0 0 0 0 0 0 0 0 0 0 0 0 0 0 0.25 0"/>
<feBlend mode="normal" in2="BackgroundImageFix" result="effect1_dropShadow_222_166"/>
<feBlend mode="normal" in="SourceGraphic" in2="effect1_dropShadow_222_166" result="shape"/>
</filter>
</defs>
</svg>
