<svg width="226" height="158" viewBox="0 0 226 158" fill="none" xmlns="http://www.w3.org/2000/svg">
<path d="M46.9673 21.0731C-11.4903 54.0872 -2.08387 99.5723 33.8642 128.671C46.8817 138.559 62.6345 143.203 75.3182 147.158C136.296 165.925 136.406 135.025 128.661 117.122C190.069 126.526 185.67 92.7493 172.561 71.9041L183.032 73.8569C201.174 76.9022 225.364 63.7062 220.324 42.3894C215.283 21.0726 176.65 17.0127 143.725 9.9072C99.3775 0.337005 75.1881 5.13532 46.9673 21.0731Z" fill="#fffee6"/>
<path d="M33.8642 128.671L30.7183 132.558L30.7783 132.606L30.8399 132.653L33.8642 128.671ZM46.9673 21.0731L49.426 25.4268L49.426 25.4268L46.9673 21.0731ZM143.725 9.9072L142.67 14.7947L143.725 9.9072ZM220.324 42.3894L225.189 41.2388L225.189 41.2388L220.324 42.3894ZM183.032 73.8569L182.115 78.7721L182.159 78.7804L182.204 78.7879L183.032 73.8569ZM172.561 71.9041L173.478 66.9889L173.478 66.9889L172.561 71.9041ZM129.523 58.791C126.808 58.2847 124.197 60.0749 123.691 62.7895C123.184 65.5041 124.974 68.1152 127.689 68.6214L129.523 58.791ZM107.398 112.748L106.112 117.58L106.148 117.589L106.184 117.598L107.398 112.748ZM89.0531 102.688C86.3847 101.978 83.6454 103.565 82.9348 106.233C82.2241 108.902 83.8112 111.641 86.4797 112.352L89.0531 102.688ZM75.3182 147.158L73.8298 151.931L73.8386 151.934L73.8474 151.937L75.3182 147.158ZM37.01 124.785C19.7283 110.796 9.601 93.4872 10.0122 76.4611C10.417 59.6949 21.1117 41.4174 49.426 25.4268L44.5085 16.7195C14.3653 33.7429 0.534363 54.715 0.0150675 76.2196C-0.49795 97.4643 12.052 117.448 30.7183 132.558L37.01 124.785ZM49.426 25.4268C63.1626 17.669 75.649 12.7697 89.9529 10.8817C104.309 8.98669 120.83 10.0816 142.67 14.7947L144.779 5.01971C122.272 0.162561 104.524 -1.12842 88.6443 0.967662C72.7114 3.07071 58.9928 8.53944 44.5085 16.7195L49.426 25.4268ZM142.67 14.7947C159.575 18.4428 176.86 21.1107 190.97 25.5851C197.949 27.7983 203.709 30.3329 207.937 33.3776C212.1 36.3756 214.548 39.6926 215.458 43.5399L225.189 41.2388C223.579 34.4278 219.308 29.2435 213.781 25.2629C208.318 21.3289 201.417 18.4075 193.993 16.0529C179.294 11.3919 160.8 8.47706 144.779 5.01971L142.67 14.7947ZM215.458 43.5399C217.41 51.7945 213.888 58.524 207.432 63.2137C200.801 68.0311 191.568 70.2199 183.859 68.9259L182.204 78.7879C192.637 80.5392 204.571 77.6527 213.31 71.3042C222.225 64.828 228.278 54.3011 225.189 41.2388L215.458 43.5399ZM183.948 68.9417L173.478 66.9889L171.645 76.8194L182.115 78.7721L183.948 68.9417ZM173.478 66.9889L129.523 58.791L127.689 68.6214L171.645 76.8194L173.478 66.9889ZM168.329 74.5658C171.375 79.4104 173.837 84.8927 174.982 90.1501C176.134 95.4399 175.866 100.054 174.083 103.62C172.38 107.025 168.91 110.249 161.964 112.129C154.882 114.046 144.417 114.477 129.418 112.18L127.904 122.065C143.61 124.47 155.622 124.205 164.577 121.782C173.667 119.322 179.792 114.562 183.027 108.093C186.181 101.785 186.193 94.6338 184.753 88.0217C183.305 81.3771 180.302 74.8204 176.794 69.2424L168.329 74.5658ZM129.418 112.18C123.235 111.233 116.322 109.829 108.613 107.898L106.184 117.598C114.146 119.593 121.367 121.064 127.904 122.065L129.418 112.18ZM108.685 107.917L89.0531 102.688L86.4797 112.352L106.112 117.58L108.685 107.917ZM123.83 118.559C123.912 118.74 123.992 118.923 124.072 119.108L133.25 115.137C133.151 114.908 133.05 114.68 132.949 114.455L123.83 118.559ZM124.072 119.107C125.823 123.155 127.064 127.805 127.17 132.13C127.276 136.448 126.258 140.022 124.002 142.594C121.785 145.122 117.715 147.43 110.15 147.91C102.523 148.394 91.7305 146.978 76.7889 142.379L73.8474 151.937C89.3949 156.722 101.483 158.481 110.784 157.89C120.148 157.295 127.055 154.278 131.52 149.189C135.945 144.144 137.313 137.809 137.167 131.884C137.021 125.967 135.371 120.041 133.25 115.137L124.072 119.107ZM76.8066 142.385C63.9306 138.37 49.0794 133.949 36.8884 124.69L30.8399 132.653C44.684 143.168 61.3383 148.036 73.8298 151.931L76.8066 142.385Z" fill="black"/>
</svg>
