<svg id="visual" viewBox="0 0 900 600" width="900" height="600" xmlns="http://www.w3.org/2000/svg" xmlns:xlink="http://www.w3.org/1999/xlink" version="1.1"><path d="M854 600L854 595.5C854 591 854 582 854 572.8C854 563.7 854 554.3 854 545.2C854 536 854 527 854 518C854 509 854 500 854 491C854 482 854 473 854 463.8C854 454.7 854 445.3 854 436.2C854 427 854 418 854 409C854 400 854 391 854 382C854 373 854 364 854 354.8C854 345.7 854 336.3 854 327.2C854 318 854 309 854 300C854 291 854 282 854 272.8C854 263.7 854 254.3 854 245.2C854 236 854 227 854 218C854 209 854 200 854 191C854 182 854 173 854 163.8C854 154.7 854 145.3 854 136.2C854 127 854 118 854 109C854 100 854 91 854 82C854 73 854 64 854 54.8C854 45.7 854 36.3 854 27.2C854 18 854 9 854 4.5L854 0L900 0L900 4.5C900 9 900 18 900 27.2C900 36.3 900 45.7 900 54.8C900 64 900 73 900 82C900 91 900 100 900 109C900 118 900 127 900 136.2C900 145.3 900 154.7 900 163.8C900 173 900 182 900 191C900 200 900 209 900 218C900 227 900 236 900 245.2C900 254.3 900 263.7 900 272.8C900 282 900 291 900 300C900 309 900 318 900 327.2C900 336.3 900 345.7 900 354.8C900 364 900 373 900 382C900 391 900 400 900 409C900 418 900 427 900 436.2C900 445.3 900 454.7 900 463.8C900 473 900 482 900 491C900 500 900 509 900 518C900 527 900 536 900 545.2C900 554.3 900 563.7 900 572.8C900 582 900 591 900 595.5L900 600Z" fill="#eb00eb"></path><path d="M764 600L764 595.5C764 591 764 582 765.5 572.8C767 563.7 770 554.3 770 545.2C770 536 767 527 767 518C767 509 770 500 770 491C770 482 767 473 767 463.8C767 454.7 770 445.3 770 436.2C770 427 767 418 765.5 409C764 400 764 391 765.5 382C767 373 770 364 770 354.8C770 345.7 767 336.3 765.5 327.2C764 318 764 309 765.5 300C767 291 770 282 771.5 272.8C773 263.7 773 254.3 773 245.2C773 236 773 227 771.5 218C770 209 767 200 767 191C767 182 770 173 770 163.8C770 154.7 767 145.3 765.5 136.2C764 127 764 118 764 109C764 100 764 91 765.5 82C767 73 770 64 771.5 54.8C773 45.7 773 36.3 773 27.2C773 18 773 9 773 4.5L773 0L855 0L855 4.5C855 9 855 18 855 27.2C855 36.3 855 45.7 855 54.8C855 64 855 73 855 82C855 91 855 100 855 109C855 118 855 127 855 136.2C855 145.3 855 154.7 855 163.8C855 173 855 182 855 191C855 200 855 209 855 218C855 227 855 236 855 245.2C855 254.3 855 263.7 855 272.8C855 282 855 291 855 300C855 309 855 318 855 327.2C855 336.3 855 345.7 855 354.8C855 364 855 373 855 382C855 391 855 400 855 409C855 418 855 427 855 436.2C855 445.3 855 454.7 855 463.8C855 473 855 482 855 491C855 500 855 509 855 518C855 527 855 536 855 545.2C855 554.3 855 563.7 855 572.8C855 582 855 591 855 595.5L855 600Z" fill="#d90ed9"></path><path d="M593 600L593 595.5C593 591 593 582 591.5 572.8C590 563.7 587 554.3 585.5 545.2C584 536 584 527 584 518C584 509 584 500 585.5 491C587 482 590 473 588.5 463.8C587 454.7 581 445.3 578 436.2C575 427 575 418 573.5 409C572 400 569 391 569 382C569 373 572 364 575 354.8C578 345.7 581 336.3 581 327.2C581 318 578 309 578 300C578 291 581 282 582.5 272.8C584 263.7 584 254.3 582.5 245.2C581 236 578 227 575 218C572 209 569 200 567.5 191C566 182 566 173 566 163.8C566 154.7 566 145.3 567.5 136.2C569 127 572 118 575 109C578 100 581 91 582.5 82C584 73 584 64 581 54.8C578 45.7 572 36.3 575 27.2C578 18 590 9 596 4.5L602 0L774 0L774 4.5C774 9 774 18 774 27.2C774 36.3 774 45.7 772.5 54.8C771 64 768 73 766.5 82C765 91 765 100 765 109C765 118 765 127 766.5 136.2C768 145.3 771 154.7 771 163.8C771 173 768 182 768 191C768 200 771 209 772.5 218C774 227 774 236 774 245.2C774 254.3 774 263.7 772.5 272.8C771 282 768 291 766.5 300C765 309 765 318 766.5 327.2C768 336.3 771 345.7 771 354.8C771 364 768 373 766.5 382C765 391 765 400 766.5 409C768 418 771 427 771 436.2C771 445.3 768 454.7 768 463.8C768 473 771 482 771 491C771 500 768 509 768 518C768 527 771 536 771 545.2C771 554.3 768 563.7 766.5 572.8C765 582 765 591 765 595.5L765 600Z" fill="#c716c6"></path><path d="M494 600L494 595.5C494 591 494 582 489.5 572.8C485 563.7 476 554.3 473 545.2C470 536 473 527 473 518C473 509 470 500 470 491C470 482 473 473 471.5 463.8C470 454.7 464 445.3 464 436.2C464 427 470 418 471.5 409C473 400 470 391 467 382C464 373 461 364 462.5 354.8C464 345.7 470 336.3 473 327.2C476 318 476 309 474.5 300C473 291 470 282 468.5 272.8C467 263.7 467 254.3 465.5 245.2C464 236 461 227 459.5 218C458 209 458 200 458 191C458 182 458 173 459.5 163.8C461 154.7 464 145.3 464 136.2C464 127 461 118 462.5 109C464 100 470 91 471.5 82C473 73 470 64 467 54.8C464 45.7 461 36.3 464 27.2C467 18 476 9 480.5 4.5L485 0L603 0L597 4.5C591 9 579 18 576 27.2C573 36.3 579 45.7 582 54.8C585 64 585 73 583.5 82C582 91 579 100 576 109C573 118 570 127 568.5 136.2C567 145.3 567 154.7 567 163.8C567 173 567 182 568.5 191C570 200 573 209 576 218C579 227 582 236 583.5 245.2C585 254.3 585 263.7 583.5 272.8C582 282 579 291 579 300C579 309 582 318 582 327.2C582 336.3 579 345.7 576 354.8C573 364 570 373 570 382C570 391 573 400 574.5 409C576 418 576 427 579 436.2C582 445.3 588 454.7 589.5 463.8C591 473 588 482 586.5 491C585 500 585 509 585 518C585 527 585 536 586.5 545.2C588 554.3 591 563.7 592.5 572.8C594 582 594 591 594 595.5L594 600Z" fill="#b51ab5"></path><path d="M422 600L422 595.5C422 591 422 582 417.5 572.8C413 563.7 404 554.3 402.5 545.2C401 536 407 527 408.5 518C410 509 407 500 407 491C407 482 410 473 407 463.8C404 454.7 395 445.3 393.5 436.2C392 427 398 418 401 409C404 400 404 391 401 382C398 373 392 364 392 354.8C392 345.7 398 336.3 402.5 327.2C407 318 410 309 408.5 300C407 291 401 282 398 272.8C395 263.7 395 254.3 395 245.2C395 236 395 227 393.5 218C392 209 389 200 389 191C389 182 392 173 395 163.8C398 154.7 401 145.3 401 136.2C401 127 398 118 399.5 109C401 100 407 91 408.5 82C410 73 407 64 402.5 54.8C398 45.7 392 36.3 395 27.2C398 18 410 9 416 4.5L422 0L486 0L481.5 4.5C477 9 468 18 465 27.2C462 36.3 465 45.7 468 54.8C471 64 474 73 472.5 82C471 91 465 100 463.5 109C462 118 465 127 465 136.2C465 145.3 462 154.7 460.5 163.8C459 173 459 182 459 191C459 200 459 209 460.5 218C462 227 465 236 466.5 245.2C468 254.3 468 263.7 469.5 272.8C471 282 474 291 475.5 300C477 309 477 318 474 327.2C471 336.3 465 345.7 463.5 354.8C462 364 465 373 468 382C471 391 474 400 472.5 409C471 418 465 427 465 436.2C465 445.3 471 454.7 472.5 463.8C474 473 471 482 471 491C471 500 474 509 474 518C474 527 471 536 474 545.2C477 554.3 486 563.7 490.5 572.8C495 582 495 591 495 595.5L495 600Z" fill="#a41da3"></path><path d="M377 600L377 595.5C377 591 377 582 372.5 572.8C368 563.7 359 554.3 357.5 545.2C356 536 362 527 363.5 518C365 509 362 500 362 491C362 482 365 473 362 463.8C359 454.7 350 445.3 348.5 436.2C347 427 353 418 356 409C359 400 359 391 356 382C353 373 347 364 347 354.8C347 345.7 353 336.3 357.5 327.2C362 318 365 309 363.5 300C362 291 356 282 353 272.8C350 263.7 350 254.3 350 245.2C350 236 350 227 348.5 218C347 209 344 200 344 191C344 182 347 173 350 163.8C353 154.7 356 145.3 356 136.2C356 127 353 118 354.5 109C356 100 362 91 363.5 82C365 73 362 64 357.5 54.8C353 45.7 347 36.3 350 27.2C353 18 365 9 371 4.5L377 0L423 0L417 4.5C411 9 399 18 396 27.2C393 36.3 399 45.7 403.5 54.8C408 64 411 73 409.5 82C408 91 402 100 400.5 109C399 118 402 127 402 136.2C402 145.3 399 154.7 396 163.8C393 173 390 182 390 191C390 200 393 209 394.5 218C396 227 396 236 396 245.2C396 254.3 396 263.7 399 272.8C402 282 408 291 409.5 300C411 309 408 318 403.5 327.2C399 336.3 393 345.7 393 354.8C393 364 399 373 402 382C405 391 405 400 402 409C399 418 393 427 394.5 436.2C396 445.3 405 454.7 408 463.8C411 473 408 482 408 491C408 500 411 509 409.5 518C408 527 402 536 403.5 545.2C405 554.3 414 563.7 418.5 572.8C423 582 423 591 423 595.5L423 600Z" fill="#931e92"></path><path d="M341 600L341 595.5C341 591 341 582 336.5 572.8C332 563.7 323 554.3 321.5 545.2C320 536 326 527 327.5 518C329 509 326 500 326 491C326 482 329 473 326 463.8C323 454.7 314 445.3 312.5 436.2C311 427 317 418 320 409C323 400 323 391 320 382C317 373 311 364 311 354.8C311 345.7 317 336.3 321.5 327.2C326 318 329 309 327.5 300C326 291 320 282 317 272.8C314 263.7 314 254.3 314 245.2C314 236 314 227 312.5 218C311 209 308 200 308 191C308 182 311 173 314 163.8C317 154.7 320 145.3 320 136.2C320 127 317 118 318.5 109C320 100 326 91 327.5 82C329 73 326 64 321.5 54.8C317 45.7 311 36.3 314 27.2C317 18 329 9 335 4.5L341 0L378 0L372 4.5C366 9 354 18 351 27.2C348 36.3 354 45.7 358.5 54.8C363 64 366 73 364.5 82C363 91 357 100 355.5 109C354 118 357 127 357 136.2C357 145.3 354 154.7 351 163.8C348 173 345 182 345 191C345 200 348 209 349.5 218C351 227 351 236 351 245.2C351 254.3 351 263.7 354 272.8C357 282 363 291 364.5 300C366 309 363 318 358.5 327.2C354 336.3 348 345.7 348 354.8C348 364 354 373 357 382C360 391 360 400 357 409C354 418 348 427 349.5 436.2C351 445.3 360 454.7 363 463.8C366 473 363 482 363 491C363 500 366 509 364.5 518C363 527 357 536 358.5 545.2C360 554.3 369 563.7 373.5 572.8C378 582 378 591 378 595.5L378 600Z" fill="#831e81"></path><path d="M152 600L152 595.5C152 591 152 582 152 572.8C152 563.7 152 554.3 152 545.2C152 536 152 527 152 518C152 509 152 500 150.5 491C149 482 146 473 146 463.8C146 454.7 149 445.3 150.5 436.2C152 427 152 418 152 409C152 400 152 391 150.5 382C149 373 146 364 146 354.8C146 345.7 149 336.3 150.5 327.2C152 318 152 309 152 300C152 291 152 282 150.5 272.8C149 263.7 146 254.3 146 245.2C146 236 149 227 150.5 218C152 209 152 200 150.5 191C149 182 146 173 144.5 163.8C143 154.7 143 145.3 143 136.2C143 127 143 118 144.5 109C146 100 149 91 150.5 82C152 73 152 64 150.5 54.8C149 45.7 146 36.3 146 27.2C146 18 149 9 150.5 4.5L152 0L342 0L336 4.5C330 9 318 18 315 27.2C312 36.3 318 45.7 322.5 54.8C327 64 330 73 328.5 82C327 91 321 100 319.5 109C318 118 321 127 321 136.2C321 145.3 318 154.7 315 163.8C312 173 309 182 309 191C309 200 312 209 313.5 218C315 227 315 236 315 245.2C315 254.3 315 263.7 318 272.8C321 282 327 291 328.5 300C330 309 327 318 322.5 327.2C318 336.3 312 345.7 312 354.8C312 364 318 373 321 382C324 391 324 400 321 409C318 418 312 427 313.5 436.2C315 445.3 324 454.7 327 463.8C330 473 327 482 327 491C327 500 330 509 328.5 518C327 527 321 536 322.5 545.2C324 554.3 333 563.7 337.5 572.8C342 582 342 591 342 595.5L342 600Z" fill="#721e71"></path><path d="M89 600L89 595.5C89 591 89 582 89 572.8C89 563.7 89 554.3 89 545.2C89 536 89 527 89 518C89 509 89 500 89 491C89 482 89 473 89 463.8C89 454.7 89 445.3 89 436.2C89 427 89 418 89 409C89 400 89 391 89 382C89 373 89 364 89 354.8C89 345.7 89 336.3 89 327.2C89 318 89 309 89 300C89 291 89 282 89 272.8C89 263.7 89 254.3 89 245.2C89 236 89 227 89 218C89 209 89 200 89 191C89 182 89 173 89 163.8C89 154.7 89 145.3 89 136.2C89 127 89 118 89 109C89 100 89 91 89 82C89 73 89 64 89 54.8C89 45.7 89 36.3 89 27.2C89 18 89 9 89 4.5L89 0L153 0L151.5 4.5C150 9 147 18 147 27.2C147 36.3 150 45.7 151.5 54.8C153 64 153 73 151.5 82C150 91 147 100 145.5 109C144 118 144 127 144 136.2C144 145.3 144 154.7 145.5 163.8C147 173 150 182 151.5 191C153 200 153 209 151.5 218C150 227 147 236 147 245.2C147 254.3 150 263.7 151.5 272.8C153 282 153 291 153 300C153 309 153 318 151.5 327.2C150 336.3 147 345.7 147 354.8C147 364 150 373 151.5 382C153 391 153 400 153 409C153 418 153 427 151.5 436.2C150 445.3 147 454.7 147 463.8C147 473 150 482 151.5 491C153 500 153 509 153 518C153 527 153 536 153 545.2C153 554.3 153 563.7 153 572.8C153 582 153 591 153 595.5L153 600Z" fill="#631d61"></path><path d="M53 600L53 595.5C53 591 53 582 53 572.8C53 563.7 53 554.3 53 545.2C53 536 53 527 53 518C53 509 53 500 53 491C53 482 53 473 53 463.8C53 454.7 53 445.3 53 436.2C53 427 53 418 53 409C53 400 53 391 53 382C53 373 53 364 53 354.8C53 345.7 53 336.3 53 327.2C53 318 53 309 53 300C53 291 53 282 53 272.8C53 263.7 53 254.3 53 245.2C53 236 53 227 53 218C53 209 53 200 53 191C53 182 53 173 53 163.8C53 154.7 53 145.3 53 136.2C53 127 53 118 53 109C53 100 53 91 53 82C53 73 53 64 53 54.8C53 45.7 53 36.3 53 27.2C53 18 53 9 53 4.5L53 0L90 0L90 4.5C90 9 90 18 90 27.2C90 36.3 90 45.7 90 54.8C90 64 90 73 90 82C90 91 90 100 90 109C90 118 90 127 90 136.2C90 145.3 90 154.7 90 163.8C90 173 90 182 90 191C90 200 90 209 90 218C90 227 90 236 90 245.2C90 254.3 90 263.7 90 272.8C90 282 90 291 90 300C90 309 90 318 90 327.2C90 336.3 90 345.7 90 354.8C90 364 90 373 90 382C90 391 90 400 90 409C90 418 90 427 90 436.2C90 445.3 90 454.7 90 463.8C90 473 90 482 90 491C90 500 90 509 90 518C90 527 90 536 90 545.2C90 554.3 90 563.7 90 572.8C90 582 90 591 90 595.5L90 600Z" fill="#531b51"></path><path d="M0 600L0 595.5C0 591 0 582 0 572.8C0 563.7 0 554.3 0 545.2C0 536 0 527 0 518C0 509 0 500 0 491C0 482 0 473 0 463.8C0 454.7 0 445.3 0 436.2C0 427 0 418 0 409C0 400 0 391 0 382C0 373 0 364 0 354.8C0 345.7 0 336.3 0 327.2C0 318 0 309 0 300C0 291 0 282 0 272.8C0 263.7 0 254.3 0 245.2C0 236 0 227 0 218C0 209 0 200 0 191C0 182 0 173 0 163.8C0 154.7 0 145.3 0 136.2C0 127 0 118 0 109C0 100 0 91 0 82C0 73 0 64 0 54.8C0 45.7 0 36.3 0 27.2C0 18 0 9 0 4.5L0 0L54 0L54 4.5C54 9 54 18 54 27.2C54 36.3 54 45.7 54 54.8C54 64 54 73 54 82C54 91 54 100 54 109C54 118 54 127 54 136.2C54 145.3 54 154.7 54 163.8C54 173 54 182 54 191C54 200 54 209 54 218C54 227 54 236 54 245.2C54 254.3 54 263.7 54 272.8C54 282 54 291 54 300C54 309 54 318 54 327.2C54 336.3 54 345.7 54 354.8C54 364 54 373 54 382C54 391 54 400 54 409C54 418 54 427 54 436.2C54 445.3 54 454.7 54 463.8C54 473 54 482 54 491C54 500 54 509 54 518C54 527 54 536 54 545.2C54 554.3 54 563.7 54 572.8C54 582 54 591 54 595.5L54 600Z" fill="#441942"></path></svg>